<svg width="24" height="18" viewBox="0 0 24 18" fill="none" xmlns="http://www.w3.org/2000/svg">
<path fill-rule="evenodd" clip-rule="evenodd" d="M19.2 16.3673H21.6C21.6 17.1198 22.1538 17.6842 22.8 17.6842C23.4462 17.6842 24 17.1198 24 16.4614V1.31691C24 0.658455 23.4462 0.094065 22.8 0.094065C22.1538 0.094065 21.6 0.658455 21.6 1.31691H19.2C19.2 0.658455 18.6462 0.094065 18 0.094065C17.3538 0.094065 16.8 0.658455 16.8 1.31691H7.2C7.2 0.658455 6.64615 0.094065 6 0.094065C5.35385 0.094065 4.8 0.658455 4.8 1.31691H2.4V1.22284C2.4 0.56439 1.84615 0 1.2 0C0.553846 0 0 0.56439 0 1.22284V16.3673C0 17.0258 0.553846 17.5901 1.2 17.5901C1.84615 17.5901 2.4 17.0258 2.4 16.3673H4.8C4.8 17.0258 5.35385 17.5901 6 17.5901C6.64615 17.5901 7.2 17.0258 7.2 16.3673H16.8C16.8 17.0258 17.3538 17.5901 18 17.5901C18.6462 17.5901 19.2 17.0258 19.2 16.3673ZM4.79999 2.53973V5.07949H2.39999V2.53973H4.79999ZM9.32306 13.1691V4.51509C9.32306 4.42102 9.41537 4.23289 9.50767 4.23289C9.69229 4.04476 9.96921 4.04476 10.1538 4.23289L15.8769 8.55988L15.9692 8.65395C16.0615 8.84208 16.0615 9.03021 15.8769 9.21834L10.1538 13.5453C10.0615 13.6394 9.96921 13.6394 9.87691 13.6394C9.59998 13.6394 9.32306 13.4513 9.32306 13.1691ZM4.79999 7.52521V10.065H2.39999V7.52521H4.79999ZM4.79999 15.1444V12.6047H2.39999V15.1444H4.79999ZM21.6 12.6047H19.2V15.1444H21.6V12.6047ZM19.2 7.52521H21.6V10.065H19.2V7.52521ZM21.6 2.53973H19.2V5.07949H21.6V2.53973Z" fill="#BFBFBF"/>
</svg>
